<mxfile host="app.diagrams.net" modified="2023-05-15T14:59:48.259Z" agent="Mozilla/5.0 (Macintosh; Intel Mac OS X 10_15_7) AppleWebKit/537.36 (KHTML, like Gecko) Chrome/113.0.0.0 Safari/537.36" etag="fh1dIGRa6qZiUedBGm0G" version="21.3.1" type="github">
  <diagram name="Page-1" id="EYB6GM66S66-VP7foops">
    <mxGraphModel dx="1592" dy="788" grid="1" gridSize="10" guides="1" tooltips="1" connect="1" arrows="1" fold="1" page="1" pageScale="1" pageWidth="1169" pageHeight="827" math="0" shadow="0">
      <root>
        <mxCell id="0" />
        <mxCell id="1" parent="0" />
        <mxCell id="MKMX5WF7n5v2kXMxgiLx-17" value="" style="edgeStyle=orthogonalEdgeStyle;rounded=0;orthogonalLoop=1;jettySize=auto;html=1;" parent="1" source="MKMX5WF7n5v2kXMxgiLx-14" edge="1">
          <mxGeometry relative="1" as="geometry">
            <mxPoint x="200" y="290" as="targetPoint" />
            <Array as="points">
              <mxPoint x="165" y="280" />
              <mxPoint x="165" y="290" />
            </Array>
          </mxGeometry>
        </mxCell>
        <mxCell id="MKMX5WF7n5v2kXMxgiLx-14" value="Admin/User/Customer/" style="whiteSpace=wrap;html=1;align=center;fillColor=#f5f5f5;strokeColor=#666666;fontColor=#333333;" parent="1" vertex="1">
          <mxGeometry y="258" width="140" height="40" as="geometry" />
        </mxCell>
        <mxCell id="MKMX5WF7n5v2kXMxgiLx-26" value="" style="edgeStyle=orthogonalEdgeStyle;rounded=0;orthogonalLoop=1;jettySize=auto;html=1;" parent="1" source="MKMX5WF7n5v2kXMxgiLx-18" target="MKMX5WF7n5v2kXMxgiLx-22" edge="1">
          <mxGeometry relative="1" as="geometry" />
        </mxCell>
        <mxCell id="MKMX5WF7n5v2kXMxgiLx-33" style="edgeStyle=orthogonalEdgeStyle;rounded=0;orthogonalLoop=1;jettySize=auto;html=1;exitX=0.5;exitY=0;exitDx=0;exitDy=0;" parent="1" source="MKMX5WF7n5v2kXMxgiLx-18" edge="1">
          <mxGeometry relative="1" as="geometry">
            <mxPoint x="260" y="180" as="targetPoint" />
            <Array as="points">
              <mxPoint x="280" y="200" />
              <mxPoint x="261" y="200" />
            </Array>
          </mxGeometry>
        </mxCell>
        <mxCell id="MKMX5WF7n5v2kXMxgiLx-18" value="HomePage" style="swimlane;fontStyle=0;childLayout=stackLayout;horizontal=1;startSize=26;horizontalStack=0;resizeParent=1;resizeParentMax=0;resizeLast=0;collapsible=1;marginBottom=0;align=center;fontSize=14;" parent="1" vertex="1">
          <mxGeometry x="200" y="220" width="160" height="116" as="geometry" />
        </mxCell>
        <mxCell id="MKMX5WF7n5v2kXMxgiLx-19" value="home" style="text;strokeColor=#82b366;fillColor=#d5e8d4;spacingLeft=4;spacingRight=4;overflow=hidden;rotatable=0;points=[[0,0.5],[1,0.5]];portConstraint=eastwest;fontSize=12;whiteSpace=wrap;html=1;" parent="MKMX5WF7n5v2kXMxgiLx-18" vertex="1">
          <mxGeometry y="26" width="160" height="30" as="geometry" />
        </mxCell>
        <mxCell id="MKMX5WF7n5v2kXMxgiLx-20" value="signIn" style="text;spacingLeft=4;spacingRight=4;overflow=hidden;rotatable=0;points=[[0,0.5],[1,0.5]];portConstraint=eastwest;fontSize=12;whiteSpace=wrap;html=1;fillColor=#ffe6cc;strokeColor=#d79b00;" parent="MKMX5WF7n5v2kXMxgiLx-18" vertex="1">
          <mxGeometry y="56" width="160" height="30" as="geometry" />
        </mxCell>
        <mxCell id="MKMX5WF7n5v2kXMxgiLx-21" value="signOut" style="text;strokeColor=#6c8ebf;fillColor=#dae8fc;spacingLeft=4;spacingRight=4;overflow=hidden;rotatable=0;points=[[0,0.5],[1,0.5]];portConstraint=eastwest;fontSize=12;whiteSpace=wrap;html=1;" parent="MKMX5WF7n5v2kXMxgiLx-18" vertex="1">
          <mxGeometry y="86" width="160" height="30" as="geometry" />
        </mxCell>
        <mxCell id="MKMX5WF7n5v2kXMxgiLx-28" style="edgeStyle=orthogonalEdgeStyle;rounded=0;orthogonalLoop=1;jettySize=auto;html=1;" parent="1" source="MKMX5WF7n5v2kXMxgiLx-22" edge="1">
          <mxGeometry relative="1" as="geometry">
            <mxPoint x="170" y="290" as="targetPoint" />
          </mxGeometry>
        </mxCell>
        <mxCell id="MKMX5WF7n5v2kXMxgiLx-22" value="registrationPage" style="swimlane;fontStyle=0;childLayout=stackLayout;horizontal=1;startSize=26;horizontalStack=0;resizeParent=1;resizeParentMax=0;resizeLast=0;collapsible=1;marginBottom=0;align=center;fontSize=14;" parent="1" vertex="1">
          <mxGeometry x="200" y="416" width="160" height="116" as="geometry" />
        </mxCell>
        <mxCell id="MKMX5WF7n5v2kXMxgiLx-23" value="Registration" style="text;strokeColor=#6c8ebf;fillColor=#dae8fc;spacingLeft=4;spacingRight=4;overflow=hidden;rotatable=0;points=[[0,0.5],[1,0.5]];portConstraint=eastwest;fontSize=12;whiteSpace=wrap;html=1;" parent="MKMX5WF7n5v2kXMxgiLx-22" vertex="1">
          <mxGeometry y="26" width="160" height="30" as="geometry" />
        </mxCell>
        <mxCell id="MKMX5WF7n5v2kXMxgiLx-24" value="Verification" style="text;spacingLeft=4;spacingRight=4;overflow=hidden;rotatable=0;points=[[0,0.5],[1,0.5]];portConstraint=eastwest;fontSize=12;whiteSpace=wrap;html=1;fillColor=#dae8fc;strokeColor=#6c8ebf;" parent="MKMX5WF7n5v2kXMxgiLx-22" vertex="1">
          <mxGeometry y="56" width="160" height="30" as="geometry" />
        </mxCell>
        <mxCell id="MKMX5WF7n5v2kXMxgiLx-25" value="ForgotPassword" style="text;strokeColor=#6c8ebf;fillColor=#dae8fc;spacingLeft=4;spacingRight=4;overflow=hidden;rotatable=0;points=[[0,0.5],[1,0.5]];portConstraint=eastwest;fontSize=12;whiteSpace=wrap;html=1;" parent="MKMX5WF7n5v2kXMxgiLx-22" vertex="1">
          <mxGeometry y="86" width="160" height="30" as="geometry" />
        </mxCell>
        <mxCell id="MKMX5WF7n5v2kXMxgiLx-29" value="Home" style="swimlane;fontStyle=0;childLayout=stackLayout;horizontal=1;startSize=26;horizontalStack=0;resizeParent=1;resizeParentMax=0;resizeLast=0;collapsible=1;marginBottom=0;align=center;fontSize=14;" parent="1" vertex="1">
          <mxGeometry x="200" y="60" width="160" height="116" as="geometry" />
        </mxCell>
        <mxCell id="MKMX5WF7n5v2kXMxgiLx-30" value="ViewCategory" style="text;strokeColor=#82b366;fillColor=#d5e8d4;spacingLeft=4;spacingRight=4;overflow=hidden;rotatable=0;points=[[0,0.5],[1,0.5]];portConstraint=eastwest;fontSize=12;whiteSpace=wrap;html=1;" parent="MKMX5WF7n5v2kXMxgiLx-29" vertex="1">
          <mxGeometry y="26" width="160" height="30" as="geometry" />
        </mxCell>
        <mxCell id="MKMX5WF7n5v2kXMxgiLx-31" value="ViewSubCategory" style="text;strokeColor=#82b366;fillColor=#d5e8d4;spacingLeft=4;spacingRight=4;overflow=hidden;rotatable=0;points=[[0,0.5],[1,0.5]];portConstraint=eastwest;fontSize=12;whiteSpace=wrap;html=1;" parent="MKMX5WF7n5v2kXMxgiLx-29" vertex="1">
          <mxGeometry y="56" width="160" height="30" as="geometry" />
        </mxCell>
        <mxCell id="MKMX5WF7n5v2kXMxgiLx-32" value="ViewPolicy" style="text;strokeColor=#82b366;fillColor=#d5e8d4;spacingLeft=4;spacingRight=4;overflow=hidden;rotatable=0;points=[[0,0.5],[1,0.5]];portConstraint=eastwest;fontSize=12;whiteSpace=wrap;html=1;" parent="MKMX5WF7n5v2kXMxgiLx-29" vertex="1">
          <mxGeometry y="86" width="160" height="30" as="geometry" />
        </mxCell>
        <mxCell id="MKMX5WF7n5v2kXMxgiLx-94" style="edgeStyle=orthogonalEdgeStyle;rounded=0;orthogonalLoop=1;jettySize=auto;html=1;exitX=0.5;exitY=1;exitDx=0;exitDy=0;" parent="1" source="MKMX5WF7n5v2kXMxgiLx-35" edge="1">
          <mxGeometry relative="1" as="geometry">
            <mxPoint x="465" y="350" as="targetPoint" />
            <Array as="points">
              <mxPoint x="465" y="330" />
              <mxPoint x="465" y="330" />
            </Array>
          </mxGeometry>
        </mxCell>
        <mxCell id="MKMX5WF7n5v2kXMxgiLx-97" style="edgeStyle=orthogonalEdgeStyle;rounded=0;orthogonalLoop=1;jettySize=auto;html=1;exitX=1;exitY=0.5;exitDx=0;exitDy=0;entryX=0;entryY=0.5;entryDx=0;entryDy=0;" parent="1" source="MKMX5WF7n5v2kXMxgiLx-35" target="MKMX5WF7n5v2kXMxgiLx-43" edge="1">
          <mxGeometry relative="1" as="geometry" />
        </mxCell>
        <mxCell id="MKMX5WF7n5v2kXMxgiLx-35" value="signIn User/Admin" style="rounded=1;whiteSpace=wrap;html=1;absoluteArcSize=1;arcSize=14;strokeWidth=2;fillColor=#ffe6cc;strokeColor=#d79b00;" parent="1" vertex="1">
          <mxGeometry x="420" y="271" width="90" height="40" as="geometry" />
        </mxCell>
        <mxCell id="MKMX5WF7n5v2kXMxgiLx-105" style="edgeStyle=orthogonalEdgeStyle;rounded=0;orthogonalLoop=1;jettySize=auto;html=1;" parent="1" source="MKMX5WF7n5v2kXMxgiLx-43" edge="1">
          <mxGeometry relative="1" as="geometry">
            <mxPoint x="670" y="291" as="targetPoint" />
          </mxGeometry>
        </mxCell>
        <mxCell id="MKMX5WF7n5v2kXMxgiLx-43" value="Admin" style="rounded=1;whiteSpace=wrap;html=1;absoluteArcSize=1;arcSize=14;strokeWidth=2;" parent="1" vertex="1">
          <mxGeometry x="560" y="281" width="80" height="20" as="geometry" />
        </mxCell>
        <mxCell id="MKMX5WF7n5v2kXMxgiLx-96" style="edgeStyle=orthogonalEdgeStyle;rounded=0;orthogonalLoop=1;jettySize=auto;html=1;exitX=0.5;exitY=1;exitDx=0;exitDy=0;entryX=0.419;entryY=-0.027;entryDx=0;entryDy=0;entryPerimeter=0;" parent="1" source="MKMX5WF7n5v2kXMxgiLx-44" target="MKMX5WF7n5v2kXMxgiLx-64" edge="1">
          <mxGeometry relative="1" as="geometry" />
        </mxCell>
        <mxCell id="MKMX5WF7n5v2kXMxgiLx-44" value="User" style="rounded=1;whiteSpace=wrap;html=1;absoluteArcSize=1;arcSize=14;strokeWidth=2;" parent="1" vertex="1">
          <mxGeometry x="430" y="350" width="80" height="20" as="geometry" />
        </mxCell>
        <mxCell id="MKMX5WF7n5v2kXMxgiLx-53" value="home" style="text;strokeColor=#82b366;fillColor=#d5e8d4;spacingLeft=4;spacingRight=4;overflow=hidden;rotatable=0;points=[[0,0.5],[1,0.5]];portConstraint=eastwest;fontSize=12;whiteSpace=wrap;html=1;" parent="1" vertex="1">
          <mxGeometry x="200" y="246" width="160" height="30" as="geometry" />
        </mxCell>
        <mxCell id="MKMX5WF7n5v2kXMxgiLx-99" style="edgeStyle=orthogonalEdgeStyle;rounded=0;orthogonalLoop=1;jettySize=auto;html=1;exitX=1;exitY=0.5;exitDx=0;exitDy=0;" parent="1" source="MKMX5WF7n5v2kXMxgiLx-58" edge="1">
          <mxGeometry relative="1" as="geometry">
            <mxPoint x="910" y="100" as="targetPoint" />
            <Array as="points">
              <mxPoint x="860" y="291" />
              <mxPoint x="860" y="100" />
            </Array>
          </mxGeometry>
        </mxCell>
        <mxCell id="MKMX5WF7n5v2kXMxgiLx-100" style="edgeStyle=orthogonalEdgeStyle;rounded=0;orthogonalLoop=1;jettySize=auto;html=1;exitX=1;exitY=0.75;exitDx=0;exitDy=0;entryX=0.009;entryY=0.283;entryDx=0;entryDy=0;entryPerimeter=0;" parent="1" source="MKMX5WF7n5v2kXMxgiLx-58" target="MKMX5WF7n5v2kXMxgiLx-77" edge="1">
          <mxGeometry relative="1" as="geometry" />
        </mxCell>
        <mxCell id="MKMX5WF7n5v2kXMxgiLx-58" value="AdminPage" style="swimlane;fontStyle=0;childLayout=stackLayout;horizontal=1;startSize=26;horizontalStack=0;resizeParent=1;resizeParentMax=0;resizeLast=0;collapsible=1;marginBottom=0;align=center;fontSize=14;" parent="1" vertex="1">
          <mxGeometry x="680" y="221" width="160" height="140" as="geometry" />
        </mxCell>
        <mxCell id="MKMX5WF7n5v2kXMxgiLx-59" value="ViewUserList" style="text;strokeColor=#d79b00;fillColor=#ffe6cc;spacingLeft=4;spacingRight=4;overflow=hidden;rotatable=0;points=[[0,0.5],[1,0.5]];portConstraint=eastwest;fontSize=12;whiteSpace=wrap;html=1;" parent="MKMX5WF7n5v2kXMxgiLx-58" vertex="1">
          <mxGeometry y="26" width="160" height="30" as="geometry" />
        </mxCell>
        <mxCell id="MKMX5WF7n5v2kXMxgiLx-60" value="Category" style="text;strokeColor=#d6b656;fillColor=#fff2cc;spacingLeft=4;spacingRight=4;overflow=hidden;rotatable=0;points=[[0,0.5],[1,0.5]];portConstraint=eastwest;fontSize=12;whiteSpace=wrap;html=1;" parent="MKMX5WF7n5v2kXMxgiLx-58" vertex="1">
          <mxGeometry y="56" width="160" height="30" as="geometry" />
        </mxCell>
        <mxCell id="MKMX5WF7n5v2kXMxgiLx-61" value="SubCategory" style="text;strokeColor=#6c8ebf;fillColor=#dae8fc;spacingLeft=4;spacingRight=4;overflow=hidden;rotatable=0;points=[[0,0.5],[1,0.5]];portConstraint=eastwest;fontSize=12;whiteSpace=wrap;html=1;" parent="MKMX5WF7n5v2kXMxgiLx-58" vertex="1">
          <mxGeometry y="86" width="160" height="30" as="geometry" />
        </mxCell>
        <mxCell id="MKMX5WF7n5v2kXMxgiLx-62" value="&amp;nbsp;policy" style="whiteSpace=wrap;html=1;align=left;fillColor=#d5e8d4;strokeColor=#82b366;" parent="MKMX5WF7n5v2kXMxgiLx-58" vertex="1">
          <mxGeometry y="116" width="160" height="24" as="geometry" />
        </mxCell>
        <mxCell id="MKMX5WF7n5v2kXMxgiLx-64" value="UserDashBoard" style="swimlane;fontStyle=0;childLayout=stackLayout;horizontal=1;startSize=30;horizontalStack=0;resizeParent=1;resizeParentMax=0;resizeLast=0;collapsible=1;marginBottom=0;align=center;fontSize=14;" parent="1" vertex="1">
          <mxGeometry x="400" y="400" width="160" height="150" as="geometry" />
        </mxCell>
        <mxCell id="MKMX5WF7n5v2kXMxgiLx-65" value="ViewCategory" style="text;strokeColor=#82b366;fillColor=#d5e8d4;spacingLeft=4;spacingRight=4;overflow=hidden;rotatable=0;points=[[0,0.5],[1,0.5]];portConstraint=eastwest;fontSize=12;whiteSpace=wrap;html=1;" parent="MKMX5WF7n5v2kXMxgiLx-64" vertex="1">
          <mxGeometry y="30" width="160" height="30" as="geometry" />
        </mxCell>
        <mxCell id="MKMX5WF7n5v2kXMxgiLx-66" value="View SubCategory" style="text;strokeColor=#666666;fillColor=#f5f5f5;spacingLeft=4;spacingRight=4;overflow=hidden;rotatable=0;points=[[0,0.5],[1,0.5]];portConstraint=eastwest;fontSize=12;whiteSpace=wrap;html=1;fontColor=#333333;" parent="MKMX5WF7n5v2kXMxgiLx-64" vertex="1">
          <mxGeometry y="60" width="160" height="30" as="geometry" />
        </mxCell>
        <mxCell id="MKMX5WF7n5v2kXMxgiLx-67" value="View Policy" style="text;strokeColor=#d79b00;fillColor=#ffe6cc;spacingLeft=4;spacingRight=4;overflow=hidden;rotatable=0;points=[[0,0.5],[1,0.5]];portConstraint=eastwest;fontSize=12;whiteSpace=wrap;html=1;" parent="MKMX5WF7n5v2kXMxgiLx-64" vertex="1">
          <mxGeometry y="90" width="160" height="30" as="geometry" />
        </mxCell>
        <mxCell id="MKMX5WF7n5v2kXMxgiLx-69" value="Request Policy" style="whiteSpace=wrap;html=1;align=left;fillColor=#fff2cc;strokeColor=#d6b656;" parent="MKMX5WF7n5v2kXMxgiLx-64" vertex="1">
          <mxGeometry y="120" width="160" height="30" as="geometry" />
        </mxCell>
        <mxCell id="MKMX5WF7n5v2kXMxgiLx-102" style="edgeStyle=orthogonalEdgeStyle;rounded=0;orthogonalLoop=1;jettySize=auto;html=1;exitX=1;exitY=0.5;exitDx=0;exitDy=0;entryX=0;entryY=0.5;entryDx=0;entryDy=0;" parent="1" source="MKMX5WF7n5v2kXMxgiLx-68" target="MKMX5WF7n5v2kXMxgiLx-86" edge="1">
          <mxGeometry relative="1" as="geometry">
            <mxPoint x="860" y="690" as="targetPoint" />
            <Array as="points">
              <mxPoint x="861" y="376" />
              <mxPoint x="861" y="671" />
            </Array>
          </mxGeometry>
        </mxCell>
        <mxCell id="MKMX5WF7n5v2kXMxgiLx-68" value="Buye&#39;s Policy Request" style="whiteSpace=wrap;html=1;align=left;fillColor=#e1d5e7;strokeColor=#9673a6;" parent="1" vertex="1">
          <mxGeometry x="680" y="361" width="160" height="30" as="geometry" />
        </mxCell>
        <mxCell id="MKMX5WF7n5v2kXMxgiLx-70" value="View Policy Hold" style="whiteSpace=wrap;html=1;align=left;fillColor=#e1d5e7;strokeColor=#9673a6;" parent="1" vertex="1">
          <mxGeometry x="400" y="550" width="160" height="30" as="geometry" />
        </mxCell>
        <mxCell id="MKMX5WF7n5v2kXMxgiLx-71" value="Category" style="swimlane;fontStyle=0;childLayout=stackLayout;horizontal=1;startSize=26;horizontalStack=0;resizeParent=1;resizeParentMax=0;resizeLast=0;collapsible=1;marginBottom=0;align=center;fontSize=14;fillColor=#fff2cc;strokeColor=#d6b656;" parent="1" vertex="1">
          <mxGeometry x="920" y="20" width="160" height="116" as="geometry" />
        </mxCell>
        <mxCell id="MKMX5WF7n5v2kXMxgiLx-72" value="Add Category" style="text;strokeColor=#d6b656;fillColor=#fff2cc;spacingLeft=4;spacingRight=4;overflow=hidden;rotatable=0;points=[[0,0.5],[1,0.5]];portConstraint=eastwest;fontSize=12;whiteSpace=wrap;html=1;" parent="MKMX5WF7n5v2kXMxgiLx-71" vertex="1">
          <mxGeometry y="26" width="160" height="30" as="geometry" />
        </mxCell>
        <mxCell id="MKMX5WF7n5v2kXMxgiLx-73" value="View Category" style="text;strokeColor=#d6b656;fillColor=#fff2cc;spacingLeft=4;spacingRight=4;overflow=hidden;rotatable=0;points=[[0,0.5],[1,0.5]];portConstraint=eastwest;fontSize=12;whiteSpace=wrap;html=1;" parent="MKMX5WF7n5v2kXMxgiLx-71" vertex="1">
          <mxGeometry y="56" width="160" height="30" as="geometry" />
        </mxCell>
        <mxCell id="MKMX5WF7n5v2kXMxgiLx-74" value="Update Category" style="text;strokeColor=#d6b656;fillColor=#fff2cc;spacingLeft=4;spacingRight=4;overflow=hidden;rotatable=0;points=[[0,0.5],[1,0.5]];portConstraint=eastwest;fontSize=12;whiteSpace=wrap;html=1;" parent="MKMX5WF7n5v2kXMxgiLx-71" vertex="1">
          <mxGeometry y="86" width="160" height="30" as="geometry" />
        </mxCell>
        <mxCell id="MKMX5WF7n5v2kXMxgiLx-75" value="SubCategory" style="swimlane;fontStyle=0;childLayout=stackLayout;horizontal=1;startSize=26;horizontalStack=0;resizeParent=1;resizeParentMax=0;resizeLast=0;collapsible=1;marginBottom=0;align=center;fontSize=14;fillColor=#dae8fc;strokeColor=#6c8ebf;" parent="1" vertex="1">
          <mxGeometry x="920" y="176" width="160" height="116" as="geometry" />
        </mxCell>
        <mxCell id="MKMX5WF7n5v2kXMxgiLx-76" value="Add SubCategory" style="text;strokeColor=#6c8ebf;fillColor=#dae8fc;spacingLeft=4;spacingRight=4;overflow=hidden;rotatable=0;points=[[0,0.5],[1,0.5]];portConstraint=eastwest;fontSize=12;whiteSpace=wrap;html=1;" parent="MKMX5WF7n5v2kXMxgiLx-75" vertex="1">
          <mxGeometry y="26" width="160" height="30" as="geometry" />
        </mxCell>
        <mxCell id="MKMX5WF7n5v2kXMxgiLx-77" value="View SubCategory" style="text;strokeColor=#6c8ebf;fillColor=#dae8fc;spacingLeft=4;spacingRight=4;overflow=hidden;rotatable=0;points=[[0,0.5],[1,0.5]];portConstraint=eastwest;fontSize=12;whiteSpace=wrap;html=1;" parent="MKMX5WF7n5v2kXMxgiLx-75" vertex="1">
          <mxGeometry y="56" width="160" height="30" as="geometry" />
        </mxCell>
        <mxCell id="MKMX5WF7n5v2kXMxgiLx-78" value="Update SubCategory" style="text;strokeColor=#6c8ebf;fillColor=#dae8fc;spacingLeft=4;spacingRight=4;overflow=hidden;rotatable=0;points=[[0,0.5],[1,0.5]];portConstraint=eastwest;fontSize=12;whiteSpace=wrap;html=1;" parent="MKMX5WF7n5v2kXMxgiLx-75" vertex="1">
          <mxGeometry y="86" width="160" height="30" as="geometry" />
        </mxCell>
        <mxCell id="MKMX5WF7n5v2kXMxgiLx-79" value="Policy" style="swimlane;fontStyle=0;childLayout=stackLayout;horizontal=1;startSize=26;horizontalStack=0;resizeParent=1;resizeParentMax=0;resizeLast=0;collapsible=1;marginBottom=0;align=center;fontSize=14;fillColor=#d5e8d4;strokeColor=#82b366;" parent="1" vertex="1">
          <mxGeometry x="920" y="390" width="160" height="116" as="geometry" />
        </mxCell>
        <mxCell id="MKMX5WF7n5v2kXMxgiLx-80" value="Add Policy" style="text;strokeColor=#82b366;fillColor=#d5e8d4;spacingLeft=4;spacingRight=4;overflow=hidden;rotatable=0;points=[[0,0.5],[1,0.5]];portConstraint=eastwest;fontSize=12;whiteSpace=wrap;html=1;" parent="MKMX5WF7n5v2kXMxgiLx-79" vertex="1">
          <mxGeometry y="26" width="160" height="30" as="geometry" />
        </mxCell>
        <mxCell id="MKMX5WF7n5v2kXMxgiLx-81" value="View Policy" style="text;strokeColor=#82b366;fillColor=#d5e8d4;spacingLeft=4;spacingRight=4;overflow=hidden;rotatable=0;points=[[0,0.5],[1,0.5]];portConstraint=eastwest;fontSize=12;whiteSpace=wrap;html=1;" parent="MKMX5WF7n5v2kXMxgiLx-79" vertex="1">
          <mxGeometry y="56" width="160" height="30" as="geometry" />
        </mxCell>
        <mxCell id="MKMX5WF7n5v2kXMxgiLx-82" value="UpDate Policy" style="text;strokeColor=#82b366;fillColor=#d5e8d4;spacingLeft=4;spacingRight=4;overflow=hidden;rotatable=0;points=[[0,0.5],[1,0.5]];portConstraint=eastwest;fontSize=12;whiteSpace=wrap;html=1;" parent="MKMX5WF7n5v2kXMxgiLx-79" vertex="1">
          <mxGeometry y="86" width="160" height="30" as="geometry" />
        </mxCell>
        <mxCell id="MKMX5WF7n5v2kXMxgiLx-83" value="Buyer&#39;Policy Request" style="swimlane;fontStyle=0;childLayout=stackLayout;horizontal=1;startSize=26;horizontalStack=0;resizeParent=1;resizeParentMax=0;resizeLast=0;collapsible=1;marginBottom=0;align=center;fontSize=14;fillColor=#e1d5e7;strokeColor=#9673a6;" parent="1" vertex="1">
          <mxGeometry x="910" y="600" width="160" height="116" as="geometry" />
        </mxCell>
        <mxCell id="MKMX5WF7n5v2kXMxgiLx-85" value="View Request List" style="text;strokeColor=#9673a6;fillColor=#e1d5e7;spacingLeft=4;spacingRight=4;overflow=hidden;rotatable=0;points=[[0,0.5],[1,0.5]];portConstraint=eastwest;fontSize=12;whiteSpace=wrap;html=1;" parent="MKMX5WF7n5v2kXMxgiLx-83" vertex="1">
          <mxGeometry y="26" width="160" height="30" as="geometry" />
        </mxCell>
        <mxCell id="MKMX5WF7n5v2kXMxgiLx-86" value="Activate" style="text;strokeColor=#9673a6;fillColor=#e1d5e7;spacingLeft=4;spacingRight=4;overflow=hidden;rotatable=0;points=[[0,0.5],[1,0.5]];portConstraint=eastwest;fontSize=12;whiteSpace=wrap;html=1;" parent="MKMX5WF7n5v2kXMxgiLx-83" vertex="1">
          <mxGeometry y="56" width="160" height="30" as="geometry" />
        </mxCell>
        <mxCell id="MKMX5WF7n5v2kXMxgiLx-84" value="Cancel" style="text;strokeColor=#9673a6;fillColor=#e1d5e7;spacingLeft=4;spacingRight=4;overflow=hidden;rotatable=0;points=[[0,0.5],[1,0.5]];portConstraint=eastwest;fontSize=12;whiteSpace=wrap;html=1;" parent="MKMX5WF7n5v2kXMxgiLx-83" vertex="1">
          <mxGeometry y="86" width="160" height="30" as="geometry" />
        </mxCell>
        <mxCell id="MKMX5WF7n5v2kXMxgiLx-87" value="Delete Category" style="whiteSpace=wrap;html=1;align=left;fillColor=#fff2cc;strokeColor=#d6b656;" parent="1" vertex="1">
          <mxGeometry x="920" y="136" width="160" height="24" as="geometry" />
        </mxCell>
        <mxCell id="MKMX5WF7n5v2kXMxgiLx-88" value="Delete SubCategory" style="whiteSpace=wrap;html=1;align=left;fillColor=#d5e8d4;strokeColor=#82b366;" parent="1" vertex="1">
          <mxGeometry x="920" y="292" width="160" height="24" as="geometry" />
        </mxCell>
        <mxCell id="MKMX5WF7n5v2kXMxgiLx-90" style="edgeStyle=orthogonalEdgeStyle;rounded=0;orthogonalLoop=1;jettySize=auto;html=1;exitX=1;exitY=0.5;exitDx=0;exitDy=0;entryX=0;entryY=0.5;entryDx=0;entryDy=0;" parent="1" source="MKMX5WF7n5v2kXMxgiLx-20" target="MKMX5WF7n5v2kXMxgiLx-35" edge="1">
          <mxGeometry relative="1" as="geometry" />
        </mxCell>
        <mxCell id="MKMX5WF7n5v2kXMxgiLx-101" style="edgeStyle=orthogonalEdgeStyle;rounded=0;orthogonalLoop=1;jettySize=auto;html=1;exitX=1;exitY=0.5;exitDx=0;exitDy=0;entryX=-0.028;entryY=-0.217;entryDx=0;entryDy=0;entryPerimeter=0;" parent="1" source="MKMX5WF7n5v2kXMxgiLx-62" target="MKMX5WF7n5v2kXMxgiLx-82" edge="1">
          <mxGeometry relative="1" as="geometry">
            <mxPoint x="880" y="470" as="targetPoint" />
          </mxGeometry>
        </mxCell>
        <mxCell id="MKMX5WF7n5v2kXMxgiLx-107" value="Delete Policy" style="whiteSpace=wrap;html=1;align=left;fillColor=#d5e8d4;strokeColor=#82b366;" parent="1" vertex="1">
          <mxGeometry x="920" y="506" width="160" height="24" as="geometry" />
        </mxCell>
        <mxCell id="MKMX5WF7n5v2kXMxgiLx-109" value="Insurance Management System Application" style="rounded=1;arcSize=10;whiteSpace=wrap;html=1;align=center;fillColor=#f5f5f5;fontColor=#333333;strokeColor=#666666;dashed=1;dashPattern=1 1;" parent="1" vertex="1">
          <mxGeometry x="280" y="730" width="430" height="40" as="geometry" />
        </mxCell>
      </root>
    </mxGraphModel>
  </diagram>
</mxfile>
